<?xml version="1.0" standalone="no"?>
<!DOCTYPE svg PUBLIC "-//W3C//DTD SVG 20010904//EN"
 "http://www.w3.org/TR/2001/REC-SVG-20010904/DTD/svg10.dtd">
<svg version="1.0" xmlns="http://www.w3.org/2000/svg"
 width="512.000000pt" height="512.000000pt" viewBox="0 0 512.000000 512.000000"
 preserveAspectRatio="xMidYMid meet">

<g transform="translate(0.000000,512.000000) scale(0.100000,-0.100000)"
fill="#fff" stroke="none">
<path d="M2777 4548 c-52 -73 -117 -167 -146 -208 l-52 -75 -62 -6 c-34 -4
-100 -7 -146 -8 l-84 -1 6 63 c4 34 9 120 13 191 l7 128 -59 -6 c-32 -3 -295
-20 -584 -37 -289 -17 -527 -33 -529 -36 -5 -3 -241 -3687 -238 -3689 1 -1 84
-6 185 -11 100 -6 185 -13 189 -16 3 -4 1 -80 -4 -169 -5 -90 -9 -164 -9 -164
1 -2 1180 -71 1183 -70 0 1 6 96 13 211 6 116 14 221 17 235 l5 25 14 -27 c8
-16 16 -28 18 -28 2 0 38 7 81 16 42 9 78 14 80 12 1 -1 46 -90 99 -195 53
-106 99 -193 103 -193 9 0 1338 241 1340 243 0 1 -217 366 -484 812 -266 445
-482 816 -480 825 2 8 217 354 477 769 365 582 470 755 459 762 -8 5 -106 50
-219 100 -113 50 -209 95 -213 99 -5 4 12 40 38 80 36 56 44 75 33 81 -24 16
-936 419 -947 419 -6 0 -52 -60 -104 -132z m535 -171 c202 -89 368 -166 368
-171 0 -5 -207 -339 -461 -743 -253 -403 -459 -739 -456 -746 3 -7 210 -356
462 -776 251 -419 455 -764 453 -766 -2 -1 -244 -46 -538 -99 -294 -54 -542
-99 -551 -102 -13 -3 -73 110 -275 517 l-259 521 -6 -58 c-4 -33 -19 -281 -35
-553 l-28 -493 -56 5 c-30 3 -247 16 -482 29 -423 22 -428 23 -428 44 0 12 50
792 110 1734 61 941 110 1717 110 1724 0 8 132 19 476 40 261 15 477 26 479
24 2 -2 -9 -219 -25 -483 -16 -264 -31 -501 -32 -528 -2 -26 -2 -47 -1 -47 1
0 176 248 389 551 295 420 391 549 403 544 9 -3 181 -79 383 -168z"/>
</g>
</svg>
